<svg xmlns="http://www.w3.org/2000/svg" xml:space="preserve" width="512" height="512"><circle cx="256" cy="256" r="256" fill="#2563eb"/><path fill="#d1d1d1" d="M257.931 233.283a3.606 3.606 0 0 0 3.837-1.434c2.756-3.932 11.135-17.776 17.664-28.414-36.376-16.427-62.585-43.296-76.954-60.877-5.646-6.908-16.774-4.079-18.415 4.69-3.135 16.755-3.527 32.586-2.575 46.488 29.685 25.025 67.772 37.357 76.443 39.547z" data-original="#c3d0d8"/><path fill="#cbcbcb" d="M279.432 203.436c-9.016 9.238-15.716 18.355-18.471 22.288a3.608 3.608 0 0 1-3.838 1.433c-8.67-2.19-39.283-10.958-75.634-33.42a200.147 200.147 0 0 0 1.456 14.018C216.838 240.64 263.008 256 263.008 256s27.086-36.394 30.29-47.006a169.163 169.163 0 0 1-13.866-5.558z" data-original="#b0c2cc"/><path fill="#fff" d="m111.56 403.1 59.76-34.893a3.496 3.496 0 0 1 3.035-.572c8.479 2.376 48.923 11.669 90.172-13.49 52.894-32.259 59.625-84.373 70.599-100.221 7.489-10.816 31.155-20.531 40.62-27.533-3.887-3.085-8.067-6.162-11.766-8.364-6.06-3.607-8.67-24.732-34.678-24.988-33.4-.327-66.294 49.947-66.294 49.947s-74.32-15.668-139.608-83.654c-6.874-7.158-19.003-3.111-20.203 6.74-4.923 40.446-3.665 119.586 74.138 147.572 0 0-41.553 15.292-91.177 16.123-6.001.1-10.445 5.652-9.127 11.507 3.132 13.9 11.633 38.3 34.53 61.825z" data-original="#edf4fa"/><path fill="#f1f1f1" d="M375.747 226.391c-11.873 2.404-35.035 8.34-42.523 19.155-10.974 15.849-17.705 67.962-70.599 100.222-41.25 25.158-81.693 15.865-90.172 13.49a3.496 3.496 0 0 0-3.034.572L111.56 403.1a149.101 149.101 0 0 0 4.181 4.138c3.651 3.467 9.282 3.776 13.31.754l48.285-36.213s45.386 15.298 91.792-13.004c52.893-32.26 59.624-84.373 70.598-100.222 10.23-14.773 49.702-20.442 49.702-20.442s-6.315-5.874-13.681-11.72z" data-original="#d8e5ef"/><path fill="#febd55" d="M369.97 114.263c.025.142.074.282.074.427 0 15.904 10.4 27.857 17.904 26.453 4.666-.873 9.34-8.596 9.34-18.105-.025-.142-.046-.284-.073-.427-2.385-12.744-10.4-21.938-17.904-20.534-4.666.873-8.034 5.64-9.34 12.186zm24.096 59.859c0 .38.163 1.062.279 1.239 6.12 9.41 17.888 5.854 27.511-2.41 4.161-3.573 7.456-8.172 7.841-14.755a8.037 8.037 0 0 0-.391-.498c-4.865-5.665-16.61-3.559-26.234 4.706-4.16 3.574-7.24 7.712-9.006 11.718zm-1.89 54.78c3.666 6.334 16.821 8.672 27.843 1.45 5.979-3.917 11.442-10.093 13.021-18.638-4.85-4.946-16.821-3.434-27.843 3.787-5.978 3.918-10.524 8.762-13.021 13.4zm-27.807-49.461c10.111 6.523 23.301 3.767 25.94-3.494-2.212-4.174-6.124-8.388-11.282-11.715-10.112-6.522-21.355-7.29-25.94-1.996.69 6.32 6.124 13.878 11.282 17.205z" data-original="#febd55"/><path fill="#f9ab43" d="M433.943 212.831a7.354 7.354 0 0 0-.902-1.117c-2.498 4.638-7.043 9.482-13.021 13.4-8.819 5.778-18.241 7.897-24.142 5.98 1.602-9.874 2.422-20.486 2.42-31.777a250.168 250.168 0 0 0-.175-9.22c5.805 2.104 14.864-.56 22.568-7.176 9.35-8.03 13.255-18.916 9.007-24.724-1.766 4.005-4.846 8.144-9.007 11.717-8.08 6.94-17.656 9.534-23.398 6.835-1.263-14.528-3.397-25.88-4.52-31.2 4.241-4.308 6.186-13.026 4.515-22.51-1.306 6.544-4.674 11.312-9.34 12.185-7.504 1.404-15.52-7.79-17.904-20.534-.027-.143-.049-.285-.074-.427-.794 3.98-.829 8.614.074 13.433 1.759 9.401 6.583 16.863 12.003 19.572 1.013 4.814 3.213 16.39 4.452 31.236-5.563 2.126-14.189.57-22.13-4.553-5.158-3.327-9.07-7.541-11.281-11.715a8.074 8.074 0 0 0-.69.91c-4.049 6.275 1.311 16.936 11.97 23.812 8.301 5.354 17.366 6.832 22.885 4.262 1.068 31.175-3.482 70.733-28.559 94.336a5.419 5.419 0 1 0 7.428 7.893c13.006-12.241 22.217-29.347 27.363-50.476 5.466 3.597 16.4 1.788 26.534-4.852 11.783-7.72 18.017-19.044 13.924-25.29z" data-original="#f9ab43"/><path fill="#8f8f8f" d="M335.126 223.31v-7.409a5.43 5.43 0 0 0-10.86 0v7.409a5.43 5.43 0 0 0 10.86 0z" data-original="#407093"/></svg>