<svg xmlns="http://www.w3.org/2000/svg" xml:space="preserve" width="512" height="512"><rect width="512" height="512" rx="102.4" ry="102.4" fill="#2563eb" shape="rounded" transform="matrix(0.81,0,0,0.81,48.639999999999986,48.639999999999986)"></rect><g transform="matrix(0.7,0,0,0.7,76.79976625442521,76.79997367858903)"><path fill="#d1d1d1" d="M258.759 223.547a5.152 5.152 0 0 0 5.482-2.048c3.936-5.618 15.907-25.395 25.234-40.592-51.966-23.467-89.407-61.851-109.934-86.967-8.066-9.869-23.964-5.827-26.308 6.701-4.478 23.935-5.039 46.55-3.678 66.411 42.407 35.75 96.817 53.366 109.204 56.495z" opacity="1" data-original="#c3d0d8" class=""></path><path fill="#cbcbcb" d="M289.475 180.908c-12.88 13.198-22.452 26.222-26.388 31.84a5.154 5.154 0 0 1-5.482 2.048c-12.387-3.129-56.119-15.655-108.049-47.742a285.924 285.924 0 0 0 2.08 20.024C200.055 234.058 266.012 256 266.012 256s38.694-51.991 43.27-67.152a241.661 241.661 0 0 1-19.807-7.94z" opacity="1" data-original="#b0c2cc" class=""></path><path fill="#ffffff" d="m49.658 466.142 85.372-49.846a4.994 4.994 0 0 1 4.335-.817c12.112 3.394 69.889 16.669 128.817-19.271 75.562-46.085 85.178-120.533 100.855-143.174 10.699-15.451 44.507-29.33 58.03-39.332-5.554-4.407-11.525-8.803-16.81-11.949-8.657-5.153-12.385-35.332-49.539-35.697-47.715-.468-94.706 71.353-94.706 71.353s-106.171-22.383-199.44-119.506c-9.82-10.226-27.147-4.445-28.861 9.629-7.034 57.779-5.236 170.836 105.911 210.817 0 0-59.361 21.845-130.253 23.032-8.573.144-14.921 8.075-13.038 16.439 4.473 19.857 16.618 54.714 49.327 88.322z" opacity="1" data-original="#edf4fa" class=""></path><path fill="#f1f1f1" d="M427.067 213.702c-16.961 3.434-50.049 11.914-60.747 27.364-15.677 22.641-25.293 97.089-100.855 143.174-58.928 35.94-116.705 22.665-128.817 19.271a4.994 4.994 0 0 0-4.335.817l-82.655 61.814a213.002 213.002 0 0 0 5.973 5.912c5.215 4.953 13.259 5.394 19.013 1.078l68.979-51.734s64.837 21.855 131.131-18.577c75.562-46.085 85.178-120.533 100.855-143.174 14.613-21.104 71.003-29.203 71.003-29.203s-9.022-8.391-19.545-16.742z" opacity="1" data-original="#d8e5ef" class=""></path><g fill="#febd55"><path d="M418.815 53.518c.036.203.105.403.105.61 0 22.72 14.858 39.796 25.577 37.79 6.666-1.247 13.344-12.279 13.344-25.863-.036-.204-.067-.406-.105-.61-3.407-18.207-14.858-31.341-25.577-29.335-6.666 1.247-11.477 8.058-13.344 17.408zM453.237 139.031c0 .542.234 1.517.399 1.77 8.744 13.442 25.555 8.364 39.302-3.442 5.944-5.104 10.651-11.674 11.201-21.079a11.482 11.482 0 0 0-.559-.711c-6.95-8.093-23.729-5.084-37.477 6.722-5.943 5.106-10.343 11.018-12.866 16.74zM450.537 217.288c5.238 9.049 24.031 12.389 39.776 2.072 8.541-5.596 16.346-14.419 18.602-26.625-6.93-7.066-24.031-4.907-39.776 5.41-8.54 5.596-15.034 12.517-18.602 19.143zM410.813 146.63c14.445 9.318 33.288 5.381 37.056-4.991-3.158-5.963-8.747-11.983-16.116-16.736-14.445-9.317-30.507-10.415-37.056-2.852.986 9.03 8.747 19.826 16.116 24.579z" fill="#febd55" opacity="1" data-original="#febd55" class=""></path></g><path fill="#f9ab43" d="M510.205 194.33a10.505 10.505 0 0 0-1.289-1.596c-3.568 6.626-10.062 13.546-18.602 19.143-12.598 8.255-26.058 11.281-34.488 8.544 2.289-14.107 3.46-29.266 3.458-45.397a357.383 357.383 0 0 0-.251-13.172c8.293 3.006 21.235-.8 32.24-10.251 13.357-11.47 18.936-27.022 12.867-35.32-2.523 5.722-6.923 11.635-12.867 16.739-11.543 9.913-25.222 13.62-33.426 9.764-1.804-20.754-4.853-36.972-6.456-44.571 6.058-6.154 8.836-18.609 6.45-32.158-1.867 9.35-6.678 16.161-13.344 17.408-10.719 2.006-22.17-11.128-25.577-29.335-.038-.204-.069-.407-.105-.61-1.135 5.685-1.184 12.306.105 19.191 2.513 13.43 9.404 24.09 17.148 27.96 1.446 6.877 4.589 23.413 6.36 44.623-7.948 3.036-20.27.813-31.615-6.505-7.369-4.753-12.958-10.773-16.116-16.736-.355.41-.689.839-.986 1.3-5.783 8.965 1.874 24.195 17.102 34.017 11.858 7.649 24.808 9.761 32.691 6.089 1.526 44.536-4.973 101.048-40.798 134.766a7.741 7.741 0 1 0 10.611 11.275c18.58-17.487 31.739-41.923 39.09-72.108 7.809 5.138 23.428 2.555 37.906-6.932 16.833-11.029 25.739-27.205 19.892-36.128z" opacity="1" data-original="#f9ab43" class=""></path><path fill="#8f8f8f" d="M369.037 209.3v-10.584a7.757 7.757 0 0 0-15.514 0V209.3a7.757 7.757 0 0 0 15.514 0z" opacity="1" data-original="#407093" class=""></path></g></svg>
