<svg width="359" height="309" viewBox="0 0 359 309" fill="none" xmlns="http://www.w3.org/2000/svg">
<path d="M181.133 131.348C181.842 131.526 182.589 131.484 183.275 131.228C183.96 130.972 184.551 130.514 184.97 129.914C187.726 125.982 196.105 112.138 202.634 101.5C166.258 85.0726 140.049 58.2036 125.68 40.6226C120.034 33.7146 108.906 36.5436 107.265 45.3126C104.13 62.0676 103.738 77.8986 104.69 91.8006C134.375 116.826 172.462 129.158 181.133 131.348Z" fill="#D1D1D1"/>
<path d="M202.634 101.501C193.618 110.739 186.918 119.856 184.163 123.789C183.744 124.388 183.152 124.847 182.467 125.103C181.781 125.359 181.034 125.4 180.325 125.222C171.655 123.032 141.042 114.264 104.691 91.8016C105.011 96.4899 105.497 101.165 106.147 105.82C140.04 138.705 186.21 154.065 186.21 154.065C186.21 154.065 213.296 117.671 216.5 107.059C211.798 105.411 207.172 103.557 202.634 101.501Z" fill="#CBCBCB"/>
<path d="M34.7618 301.165L94.5218 266.272C94.9501 265.95 95.4465 265.731 95.9727 265.632C96.499 265.533 97.0409 265.556 97.5568 265.7C106.036 268.076 146.48 277.369 187.729 252.21C240.623 219.951 247.354 167.837 258.328 151.989C265.817 141.173 289.483 131.458 298.948 124.456C295.061 121.371 290.881 118.294 287.182 116.092C281.122 112.485 278.512 91.3596 252.504 91.1036C219.104 90.7766 186.21 141.051 186.21 141.051C186.21 141.051 111.89 125.383 46.6018 57.3966C39.7278 50.2386 27.5988 54.2856 26.3988 64.1366C21.4758 104.583 22.7338 183.723 100.537 211.709C100.537 211.709 58.9838 227.001 9.35983 227.832C3.35883 227.932 -1.08517 233.484 0.232831 239.339C3.36483 253.239 11.8658 277.639 34.7628 301.164L34.7618 301.165Z" fill="white"/>
<path d="M298.949 124.456C287.076 126.86 263.914 132.796 256.426 143.611C245.452 159.46 238.721 211.573 185.827 243.833C144.577 268.991 104.134 259.698 95.6548 257.323C95.1391 257.179 94.5973 257.156 94.0713 257.256C93.5452 257.355 93.049 257.573 92.6208 257.895L34.7618 301.165C36.1282 302.571 37.5221 303.951 38.9428 305.303C42.5938 308.77 48.2248 309.079 52.2528 306.057L100.538 269.844C100.538 269.844 145.924 285.142 192.33 256.84C245.223 224.58 251.954 172.467 262.928 156.618C273.158 141.845 312.63 136.176 312.63 136.176C312.63 136.176 306.315 130.302 298.949 124.456Z" fill="#F1F1F1"/>
<path d="M293.172 12.3276C293.197 12.4696 293.246 12.6096 293.246 12.7546C293.246 28.6586 303.646 40.6116 311.15 39.2076C315.816 38.3346 320.49 30.6116 320.49 21.1026C320.465 20.9606 320.444 20.8186 320.417 20.6756C318.032 7.93161 310.017 -1.26238 302.513 0.141618C297.847 1.01462 294.479 5.78162 293.173 12.3276H293.172ZM317.268 72.1866C317.268 72.5666 317.431 73.2486 317.547 73.4256C323.667 82.8356 335.435 79.2796 345.058 71.0156C349.219 67.4426 352.514 62.8436 352.899 56.2606C352.775 56.0895 352.645 55.9234 352.508 55.7626C347.643 50.0976 335.898 52.2036 326.274 60.4686C322.114 64.0426 319.034 68.1806 317.268 72.1866ZM315.378 126.967C319.044 133.301 332.199 135.639 343.221 128.417C349.2 124.5 354.663 118.324 356.242 109.779C351.392 104.833 339.421 106.345 328.399 113.566C322.421 117.484 317.875 122.329 315.378 126.967ZM287.571 77.5056C297.682 84.0286 310.872 81.2726 313.511 74.0116C311.299 69.8376 307.387 65.6236 302.229 62.2966C292.117 55.7746 280.874 55.0066 276.289 60.3006C276.979 66.6206 282.413 74.1786 287.571 77.5056Z" fill="#FEBD55"/>
<path d="M357.145 110.896C356.881 110.495 356.579 110.121 356.243 109.779C353.745 114.417 349.2 119.261 343.222 123.179C334.403 128.957 324.981 131.076 319.08 129.159C320.682 119.285 321.502 108.673 321.5 97.3816C321.498 94.3075 321.44 91.2336 321.325 88.1616C327.13 90.2656 336.189 87.6016 343.893 80.9856C353.243 72.9556 357.148 62.0696 352.9 56.2616C351.134 60.2666 348.054 64.4056 343.893 67.9786C335.813 74.9186 326.237 77.5126 320.495 74.8136C319.232 60.2856 317.098 48.9336 315.975 43.6136C320.216 39.3056 322.161 30.5876 320.49 21.1036C319.184 27.6476 315.816 32.4156 311.15 33.2886C303.646 34.6926 295.63 25.4986 293.246 12.7546C293.219 12.6116 293.197 12.4696 293.172 12.3276C292.378 16.3076 292.343 20.9416 293.246 25.7606C295.005 35.1616 299.829 42.6236 305.249 45.3326C306.262 50.1466 308.462 61.7226 309.701 76.5686C304.138 78.6946 295.512 77.1386 287.571 72.0156C282.413 68.6886 278.501 64.4746 276.29 60.3006C276.039 60.5873 275.808 60.8914 275.6 61.2106C271.551 67.4856 276.911 78.1466 287.57 85.0226C295.871 90.3766 304.936 91.8546 310.455 89.2846C311.523 120.46 306.973 160.018 281.896 183.621C280.849 184.606 280.237 185.966 280.193 187.403C280.149 188.839 280.678 190.234 281.663 191.281C282.648 192.328 284.009 192.94 285.445 192.984C286.882 193.027 288.277 192.499 289.324 191.514C302.33 179.273 311.541 162.167 316.687 141.038C322.153 144.635 333.087 142.826 343.221 136.186C355.004 128.466 361.238 117.142 357.145 110.896Z" fill="#F9AB43"/>
<path d="M258.328 121.375V113.966C258.328 112.525 257.756 111.144 256.737 110.126C255.719 109.108 254.338 108.536 252.898 108.536C251.458 108.536 250.077 109.108 249.058 110.126C248.04 111.144 247.468 112.525 247.468 113.966V121.375C247.468 122.815 248.04 124.196 249.058 125.214C250.077 126.233 251.458 126.805 252.898 126.805C254.338 126.805 255.719 126.233 256.737 125.214C257.756 124.196 258.328 122.815 258.328 121.375Z" fill="#8F8F8F"/>
</svg>
